<mxfile host="app.diagrams.net" modified="2022-01-07T12:57:11.353Z" agent="5.0 (Windows NT 10.0; Win64; x64) AppleWebKit/537.36 (KHTML, like Gecko) Chrome/96.0.4664.110 Safari/537.36 Edg/96.0.1054.62" etag="tpuV68RFUlUYWwTnlYIm" version="16.0.0" type="github">
  <diagram id="C5RBs43oDa-KdzZeNtuy" name="Page-1">
    <mxGraphModel dx="762" dy="451" grid="1" gridSize="10" guides="1" tooltips="1" connect="1" arrows="1" fold="1" page="1" pageScale="1" pageWidth="827" pageHeight="1169" math="0" shadow="0">
      <root>
        <mxCell id="WIyWlLk6GJQsqaUBKTNV-0" />
        <mxCell id="WIyWlLk6GJQsqaUBKTNV-1" parent="WIyWlLk6GJQsqaUBKTNV-0" />
        <mxCell id="2ovcCtWtTsT-ZTR0fn4X-56" value="对账报告计算流程" style="swimlane;" parent="WIyWlLk6GJQsqaUBKTNV-1" vertex="1">
          <mxGeometry x="60" y="130" width="650" height="640" as="geometry" />
        </mxCell>
        <mxCell id="2ovcCtWtTsT-ZTR0fn4X-11" value="更新凭证报告&lt;br&gt;年累积金额" style="rounded=1;whiteSpace=wrap;html=1;fontSize=12;glass=0;strokeWidth=1;shadow=0;fillColor=#1ba1e2;fontColor=#ffffff;strokeColor=#006EAF;" parent="2ovcCtWtTsT-ZTR0fn4X-56" vertex="1">
          <mxGeometry x="261" y="405" width="120" height="45" as="geometry" />
        </mxCell>
        <mxCell id="WIyWlLk6GJQsqaUBKTNV-3" value="开始" style="rounded=1;whiteSpace=wrap;html=1;fontSize=12;glass=0;strokeWidth=1;shadow=0;fillColor=#d80073;fontColor=#ffffff;strokeColor=#A50040;" parent="2ovcCtWtTsT-ZTR0fn4X-56" vertex="1">
          <mxGeometry x="276" y="32" width="90" height="30" as="geometry" />
        </mxCell>
        <mxCell id="WIyWlLk6GJQsqaUBKTNV-7" value="遍历上一年1月到&lt;br&gt;当前年当前月份" style="rounded=1;whiteSpace=wrap;html=1;fontSize=12;glass=0;strokeWidth=1;shadow=0;fillColor=#1ba1e2;fontColor=#ffffff;strokeColor=#006EAF;" parent="2ovcCtWtTsT-ZTR0fn4X-56" vertex="1">
          <mxGeometry x="261" y="98" width="120" height="40" as="geometry" />
        </mxCell>
        <mxCell id="2ovcCtWtTsT-ZTR0fn4X-25" style="edgeStyle=orthogonalEdgeStyle;rounded=0;orthogonalLoop=1;jettySize=auto;html=1;entryX=0.5;entryY=0;entryDx=0;entryDy=0;" parent="2ovcCtWtTsT-ZTR0fn4X-56" source="WIyWlLk6GJQsqaUBKTNV-3" target="WIyWlLk6GJQsqaUBKTNV-7" edge="1">
          <mxGeometry relative="1" as="geometry" />
        </mxCell>
        <mxCell id="2ovcCtWtTsT-ZTR0fn4X-58" style="edgeStyle=orthogonalEdgeStyle;rounded=0;orthogonalLoop=1;jettySize=auto;html=1;" parent="2ovcCtWtTsT-ZTR0fn4X-56" source="2ovcCtWtTsT-ZTR0fn4X-1" target="2ovcCtWtTsT-ZTR0fn4X-3" edge="1">
          <mxGeometry relative="1" as="geometry" />
        </mxCell>
        <mxCell id="2ovcCtWtTsT-ZTR0fn4X-1" value="按照科目和币种分组汇总查询" style="rounded=1;whiteSpace=wrap;html=1;fontSize=12;glass=0;strokeWidth=1;shadow=0;fillColor=#1ba1e2;fontColor=#ffffff;strokeColor=#006EAF;" parent="2ovcCtWtTsT-ZTR0fn4X-56" vertex="1">
          <mxGeometry x="261" y="170" width="120" height="40" as="geometry" />
        </mxCell>
        <mxCell id="2ovcCtWtTsT-ZTR0fn4X-24" style="edgeStyle=orthogonalEdgeStyle;rounded=0;orthogonalLoop=1;jettySize=auto;html=1;" parent="2ovcCtWtTsT-ZTR0fn4X-56" source="WIyWlLk6GJQsqaUBKTNV-7" target="2ovcCtWtTsT-ZTR0fn4X-1" edge="1">
          <mxGeometry relative="1" as="geometry" />
        </mxCell>
        <mxCell id="9_JGacY_BnoyoRswiERX-0" style="edgeStyle=orthogonalEdgeStyle;rounded=0;orthogonalLoop=1;jettySize=auto;html=1;entryX=0.5;entryY=0;entryDx=0;entryDy=0;" parent="2ovcCtWtTsT-ZTR0fn4X-56" source="2ovcCtWtTsT-ZTR0fn4X-3" target="KlOAI8x9i0T9ViwGN7gp-15" edge="1">
          <mxGeometry relative="1" as="geometry" />
        </mxCell>
        <mxCell id="2ovcCtWtTsT-ZTR0fn4X-3" value="遍历数据集&lt;br&gt;进行汇率转换" style="rounded=1;whiteSpace=wrap;html=1;fontSize=12;glass=0;strokeWidth=1;shadow=0;fillColor=#1ba1e2;fontColor=#ffffff;strokeColor=#006EAF;" parent="2ovcCtWtTsT-ZTR0fn4X-56" vertex="1">
          <mxGeometry x="261" y="250" width="120" height="40" as="geometry" />
        </mxCell>
        <mxCell id="KlOAI8x9i0T9ViwGN7gp-0" value="年份和期间作为查询条件" style="shape=callout;whiteSpace=wrap;html=1;perimeter=calloutPerimeter;position2=0;fillColor=#fff2cc;strokeColor=#d6b656;size=30;position=0.17;align=left;" parent="2ovcCtWtTsT-ZTR0fn4X-56" vertex="1">
          <mxGeometry x="391" y="110" width="136" height="80" as="geometry" />
        </mxCell>
        <mxCell id="KlOAI8x9i0T9ViwGN7gp-12" value="结束" style="rounded=1;whiteSpace=wrap;html=1;fontSize=12;glass=0;strokeWidth=1;shadow=0;fillColor=#d80073;fontColor=#ffffff;strokeColor=#A50040;" parent="2ovcCtWtTsT-ZTR0fn4X-56" vertex="1">
          <mxGeometry x="276" y="590" width="90" height="30" as="geometry" />
        </mxCell>
        <mxCell id="KlOAI8x9i0T9ViwGN7gp-21" style="edgeStyle=orthogonalEdgeStyle;rounded=0;orthogonalLoop=1;jettySize=auto;html=1;" parent="2ovcCtWtTsT-ZTR0fn4X-56" source="KlOAI8x9i0T9ViwGN7gp-15" target="2ovcCtWtTsT-ZTR0fn4X-11" edge="1">
          <mxGeometry relative="1" as="geometry" />
        </mxCell>
        <mxCell id="KlOAI8x9i0T9ViwGN7gp-15" value="更新凭证报告数据" style="rounded=1;whiteSpace=wrap;html=1;fontSize=12;glass=0;strokeWidth=1;shadow=0;fillColor=#1ba1e2;fontColor=#ffffff;strokeColor=#006EAF;" parent="2ovcCtWtTsT-ZTR0fn4X-56" vertex="1">
          <mxGeometry x="261" y="330" width="120" height="40" as="geometry" />
        </mxCell>
        <mxCell id="KlOAI8x9i0T9ViwGN7gp-23" value="是" style="edgeStyle=orthogonalEdgeStyle;rounded=0;orthogonalLoop=1;jettySize=auto;html=1;" parent="2ovcCtWtTsT-ZTR0fn4X-56" target="KlOAI8x9i0T9ViwGN7gp-17" edge="1">
          <mxGeometry relative="1" as="geometry">
            <mxPoint x="321" y="450" as="sourcePoint" />
          </mxGeometry>
        </mxCell>
        <mxCell id="KlOAI8x9i0T9ViwGN7gp-24" style="edgeStyle=orthogonalEdgeStyle;rounded=0;orthogonalLoop=1;jettySize=auto;html=1;" parent="2ovcCtWtTsT-ZTR0fn4X-56" source="KlOAI8x9i0T9ViwGN7gp-17" target="KlOAI8x9i0T9ViwGN7gp-12" edge="1">
          <mxGeometry relative="1" as="geometry" />
        </mxCell>
        <mxCell id="KlOAI8x9i0T9ViwGN7gp-17" value="更新聚合表" style="rounded=1;whiteSpace=wrap;html=1;fontSize=12;glass=0;strokeWidth=1;shadow=0;fillColor=#1ba1e2;fontColor=#ffffff;strokeColor=#006EAF;" parent="2ovcCtWtTsT-ZTR0fn4X-56" vertex="1">
          <mxGeometry x="261" y="500" width="120" height="45" as="geometry" />
        </mxCell>
      </root>
    </mxGraphModel>
  </diagram>
</mxfile>
